PathFileType	4	(X/Y/Z)	C:/Users/opensim2020/Desktop/walking_exp_matlab/subject01_walking10_straight_01.trc	
DataRate	CameraRate	NumFrames	NumMarkers	Units	OrigDataRate	OrigDataStartFrame	OrigNumFrames	
100.00	100.00	4	43	mm	100.00	1140	349	
Frame#	Time	LFHD			RFHD			LBHD			RBHD			C7			T10			CLAV			STRN			RBAK			LSHO			LUPA			LELB			LFRM			LWRA			LWRB			LFIN			RSHO			RUPA			RELB			RFRM			RWRA			RWRB			RFIN			LASI			RASI			LPSI			RPSI			LTHI			LKNE			LTIB			LANK			LHEE			LTOE			RTHI			RKNE			RTIB			RANK			RHEE			RTOE			*39			*40			*41			*42			
		X1	Y1	Z1	X2	Y2	Z2	X3	Y3	Z3	X4	Y4	Z4	X5	Y5	Z5	X6	Y6	Z6	X7	Y7	Z7	X8	Y8	Z8	X9	Y9	Z9	X10	Y10	Z10	X11	Y11	Z11	X12	Y12	Z12	X13	Y13	Z13	X14	Y14	Z14	X15	Y15	Z15	X16	Y16	Z16	X17	Y17	Z17	X18	Y18	Z18	X19	Y19	Z19	X20	Y20	Z20	X21	Y21	Z21	X22	Y22	Z22	X23	Y23	Z23	X24	Y24	Z24	X25	Y25	Z25	X26	Y26	Z26	X27	Y27	Z27	X28	Y28	Z28	X29	Y29	Z29	X30	Y30	Z30	X31	Y31	Z31	X32	Y32	Z32	X33	Y33	Z33	X34	Y34	Z34	X35	Y35	Z35	X36	Y36	Z36	X37	Y37	Z37	X38	Y38	Z38	X39	Y39	Z39	X40	Y40	Z40	X41	Y41	Z41	X42	Y42	Z42	X43	Y43	Z43	

219	2.180	1339.90491	235.16913	1666.42444	1449.78137	263.19434	1673.66211	1364.15186	122.76283	1617.81165	1481.05872	149.81279	1624.18005	1394.29126	90.08843	1430.17432	1400.97925	51.01570	1136.23816	1400.18005	232.19171	1360.45239	1396.19629	274.70706	1205.01953	1467.23145	30.66780	1235.14001	1237.83362	181.13376	1393.03088	1152.91907	181.27280	1208.51819	1153.98608	199.70535	1056.03503	1144.37134	280.90756	970.01392	1179.41858	396.45676	900.38422	1154.41736	351.46277	870.86700	1151.56494	424.84766	829.15594	1549.51257	163.64426	1388.42932	1642.60852	92.38796	1188.97583	1642.61609	88.41538	1064.58875	1672.72852	107.94257	945.78149	1655.66846	181.18353	823.96509	1693.57690	136.89288	828.13031	1691.39441	167.59227	747.28668	1298.70740	224.75081	923.56042	1514.69800	227.52446	936.99194	1354.89502	38.61032	937.62494	1500.86035	42.80503	942.83710	1262.87329	157.64244	591.26483	1283.83081	126.29803	458.38736	1284.14282	49.25034	284.00980	1349.85730	-3.29277	73.59389	1403.50659	-50.84887	48.96450	1343.94507	141.36482	32.96215	1586.59351	245.68011	611.29657	1561.60950	303.51523	465.84222	1575.66516	303.41840	293.01501	1536.93640	351.16409	87.84876	1485.47461	319.59900	36.05884	1541.15588	495.35153	86.44815	1429.25000	247.62253	1706.98962	-3102.00732	1973.14648	1023.39191	-3140.65430	2012.51746	1022.03223			 
220	2.190	1340.88086	239.49159	1666.22266	1450.68884	267.69995	1673.71252	1365.30933	127.80380	1616.09937	1482.16003	155.09326	1622.65662	1395.16150	96.59074	1429.56812	1401.86108	57.19426	1135.77661	1400.92822	238.54765	1359.87903	1396.82312	281.01834	1204.34167	1468.01575	37.06219	1234.56519	1238.58459	187.41936	1392.51917	1153.77271	187.70978	1207.95996	1155.08362	206.51941	1055.42334	1145.54761	288.12564	969.85541	1180.61035	404.03409	900.90601	1155.80298	359.24979	871.11395	1153.02161	432.84143	829.70807	1550.33643	170.22804	1387.75110	1643.32422	98.80170	1188.31995	1643.17810	94.57029	1063.98743	1673.22168	113.75037	945.08887	1656.10181	186.51039	822.96796	1694.07556	142.26831	827.40045	1691.87427	172.60719	746.33594	1298.99280	230.52428	922.97705	1515.07117	233.90970	936.15137	1355.95264	44.54190	937.29663	1501.56885	49.51245	941.95398	1263.10474	161.77771	590.84656	1284.01270	129.62227	458.14645	1284.29736	51.09172	284.41754	1349.93518	-2.91398	74.33212	1403.59790	-50.58518	49.90919	1343.89600	141.34972	32.91842	1586.67566	250.50655	610.23669	1561.47717	308.74033	465.36646	1576.29846	312.21964	292.97382	1537.34192	363.02359	88.34063	1485.87109	331.54227	35.52700	1540.01123	507.57031	88.77601	1430.23132	251.58865	1706.83179	-3101.99023	1973.08740	1023.48700	-3140.62451	2012.60815	1022.13635			 
221	2.200	1341.84717	243.86931	1666.00427	1451.64758	272.16418	1673.74133	1366.59729	133.18465	1614.13049	1483.27295	160.32967	1621.09399	1396.09387	102.91587	1429.05420	1402.75024	63.54700	1135.26086	1401.79236	245.04214	1359.27625	1397.50037	287.32730	1203.61047	1468.95117	43.49610	1234.06396	1239.47974	193.87549	1391.95667	1154.72034	194.23161	1207.45129	1156.14929	213.21451	1054.86670	1146.82776	295.28348	969.66138	1181.77234	411.63275	901.47766	1157.16443	366.87997	871.30487	1154.32153	440.54648	830.12775	1551.14819	176.82870	1387.05737	1644.07263	105.15901	1187.64966	1643.85132	100.78716	1063.38391	1673.83667	119.56473	944.44379	1656.66602	192.02672	822.08002	1694.49255	147.60742	826.49371	1692.42896	177.86279	745.49902	1299.37634	236.51907	922.44031	1515.50928	240.34875	935.37836	1356.96570	50.69480	936.87970	1502.75391	55.60501	941.70697	1263.36487	166.06175	590.49561	1284.30713	132.99850	457.94449	1284.45142	53.03234	284.96106	1349.84985	-2.59323	75.07262	1403.66663	-50.33106	51.06986	1343.80042	141.37625	32.93883	1586.79871	255.56506	609.27313	1561.18970	313.95593	464.70132	1576.00256	319.90320	292.29068	1537.29688	373.62433	88.30181	1487.00415	341.70465	36.31860	1539.06616	518.85327	90.90977	1431.31213	255.56013	1706.66357	-3101.88989	1973.21875	1023.38196	-3140.73364	2012.54224	1022.11279			 
222	2.210	1343.05310	248.26372	1665.77625	1452.71387	276.64975	1673.77686	1367.77673	138.09724	1612.46741	1484.54297	165.62575	1619.55188	1397.09070	109.42436	1428.47546	1403.76880	69.72887	1134.82495	1402.69482	251.52652	1358.66235	1398.28271	293.72083	1202.91809	1469.94958	49.92154	1233.59778	1240.47961	200.37611	1391.45032	1155.67615	200.90323	1206.91138	1157.32898	219.89511	1054.32483	1148.11523	302.40897	969.38049	1182.99341	418.94138	901.70465	1158.62415	374.36636	871.41840	1155.65820	448.15173	830.48804	1552.11279	183.49374	1386.41333	1644.95142	111.70888	1187.02002	1644.61609	107.08437	1062.74023	1674.44080	125.52021	943.75836	1657.41125	197.74263	821.29462	1695.33899	153.35780	825.94159	1693.07751	183.38567	744.72577	1299.90295	242.55725	921.95660	1515.99866	246.85634	934.57446	1357.96533	56.84121	936.55481	1503.62378	62.19838	941.20929	1263.67529	170.38902	590.20874	1284.58826	136.37909	457.89478	1284.59009	55.13348	285.43326	1349.72144	-2.34848	75.86987	1403.48108	-50.23987	52.15561	1343.69434	141.49733	32.86678	1586.99426	260.90045	608.26544	1560.96143	319.44781	464.10550	1575.69165	327.14957	291.69373	1537.29541	383.34555	88.35323	1486.76538	352.76932	35.30404	1537.85107	528.44287	91.99231	1432.28931	259.46179	1706.34009	-3101.92114	1973.05847	1023.38873	-3140.57935	2012.49658	1022.02100			 
